<svg width="257" height="265" viewBox="0 0 257 265" fill="none" xmlns="http://www.w3.org/2000/svg">
<path d="M128.5 260.634C196.707 260.634 252 205.191 252 136.798C252 68.4048 196.707 12.9613 128.5 12.9613C60.2929 12.9613 5 68.4048 5 136.798C5 205.191 60.2929 260.634 128.5 260.634Z" fill="#2463EB"/>
<path d="M197.342 142.907C198.717 141.71 199.832 140.241 200.617 138.593C201.401 136.944 201.839 135.152 201.903 133.327C201.967 131.501 201.656 129.682 200.989 127.983C200.322 126.283 199.313 124.74 198.025 123.448C196.737 122.156 195.198 121.144 193.504 120.475C191.809 119.805 189.995 119.492 188.175 119.556C186.354 119.619 184.567 120.058 182.922 120.844C181.278 121.63 179.813 122.747 178.618 124.126C183.789 118.941 187.692 106.622 182.521 101.438C177.344 96.2532 165.058 100.167 159.888 105.351C165.058 100.167 168.961 87.8475 163.791 82.6563C158.62 77.4651 146.335 81.3851 141.164 86.5697C142.413 85.3097 143.398 83.8118 144.061 82.1641C144.724 80.5165 145.051 78.7524 145.023 76.976C144.995 75.1996 144.613 73.4468 143.899 71.8208C143.185 70.1948 142.153 68.7287 140.865 67.5087C135.589 62.5238 127.166 63.0429 122.042 68.1742L105.867 84.4067C105.554 84.7149 105.259 85.0416 104.984 85.385L104.938 85.3384L78.966 111.374C76.2954 114.052 74.177 117.23 72.7317 120.728C71.2863 124.227 70.5424 127.976 70.5424 131.763C70.5424 135.55 71.2863 139.299 72.7317 142.797C74.177 146.296 76.2954 149.474 78.966 152.152L75.2823 148.458L11.8032 179.645C17.5445 198.213 25.3765 210.765 40.0383 225.5C54.7001 240.235 66.3684 249.879 84.8997 255.643L116.898 190.16L113.214 186.467C115.884 189.144 119.053 191.268 122.542 192.718C126.03 194.167 129.769 194.913 133.544 194.913C137.32 194.913 141.059 194.167 144.547 192.718C148.036 191.268 151.205 189.144 153.875 186.467L179.846 160.424L179.8 160.378C180.142 160.102 180.468 159.807 180.775 159.493L197.342 142.907Z" fill="#FBBF24"/>
<path opacity="0.6" d="M155.189 185.149L165.563 173.995L104.646 111.561L102.588 132.578L126.947 157.003L115 156.451L91.5039 133.889L93.3889 144.651L107.878 159.18C110.779 162.088 114.666 163.794 118.765 163.96C122.864 164.125 126.875 162.737 130 160.072L155.189 185.149Z" fill="#D0830B"/>
<path opacity="0.6" d="M112.358 186.547L109.325 184.51L78.2822 249.753L85.5965 252.202L116.54 190.739L112.358 186.547Z" fill="#D0830B"/>
<path d="M104.938 85.3119L78.966 111.354C76.2956 114.031 74.1773 117.209 72.7321 120.707C71.2868 124.205 70.543 127.954 70.543 131.74C70.543 135.526 71.2868 139.275 72.7321 142.773C74.1773 146.27 76.2956 149.448 78.966 152.125" stroke="#0F172A" stroke-width="3.37939" stroke-miterlimit="10"/>
<path d="M179.846 160.424L153.874 186.467C151.204 189.144 148.035 191.268 144.547 192.718C141.059 194.167 137.32 194.913 133.544 194.913C129.768 194.913 126.029 194.167 122.541 192.718C119.053 191.268 115.883 189.144 113.214 186.467" stroke="#0F172A" stroke-width="3.37939" stroke-miterlimit="10"/>
<path d="M116.898 190.154L84.9131 255.616" stroke="#0F172A" stroke-width="3.37939" stroke-miterlimit="10"/>
<path d="M75.2823 148.431L11.8032 179.618" stroke="#0F172A" stroke-width="3.37939" stroke-miterlimit="10"/>
<path d="M128.5 260.634C196.707 260.634 252 205.191 252 136.798C252 68.4048 196.707 12.9613 128.5 12.9613C60.2929 12.9613 5 68.4048 5 136.798C5 205.191 60.2929 260.634 128.5 260.634Z" stroke="#0F3077" stroke-width="8.53998" stroke-miterlimit="10"/>
<path d="M78.9329 62.1113L18.7725 2L56.0807 109.93L57.7599 78.2372L189.172 210.007L191.017 184.55L251.556 245.041L213.146 134.708L210.358 166.461L80.2603 37.167L78.9329 62.1113Z" fill="#FDE047" stroke="#0F172A" stroke-width="3.85519" stroke-linecap="round" stroke-linejoin="round"/>
<path d="M141.132 86.5623C146.303 81.3772 146.303 72.9703 141.132 67.7852C135.961 62.6 127.577 62.6 122.405 67.7852L105.862 84.374C100.691 89.5592 100.691 97.966 105.862 103.151C111.033 108.336 119.417 108.336 124.588 103.151L141.132 86.5623Z" fill="#FBBF24" stroke="#0F172A" stroke-width="3.37939" stroke-miterlimit="10"/>
<path d="M164.348 100.844C169.52 95.659 169.52 87.2522 164.348 82.067C159.177 76.8819 150.793 76.8819 145.622 82.067L124.592 103.155C119.421 108.34 119.421 116.747 124.592 121.932C129.763 127.117 138.147 127.117 143.318 121.932L164.348 100.844Z" fill="#FBBF24" stroke="#0F172A" stroke-width="3.37939" stroke-miterlimit="10"/>
<path d="M183.084 119.627C188.255 114.442 188.255 106.035 183.084 100.85C177.913 95.6646 169.529 95.6646 164.358 100.85L143.327 121.938C138.156 127.123 138.156 135.53 143.327 140.715C148.498 145.9 156.882 145.9 162.053 140.715L183.084 119.627Z" fill="#FBBF24" stroke="#0F172A" stroke-width="3.37939" stroke-miterlimit="10"/>
<path d="M197.316 142.902C202.487 137.717 202.487 129.31 197.316 124.125C192.145 118.94 183.761 118.94 178.59 124.125L162.046 140.714C156.875 145.899 156.875 154.306 162.046 159.491C167.217 164.676 175.601 164.676 180.772 159.491L197.316 142.902Z" fill="#FBBF24" stroke="#0F172A" stroke-width="3.37939" stroke-miterlimit="10"/>
<path d="M82.8955 107.408C85.3832 104.924 88.7505 103.53 92.2607 103.53C95.7709 103.53 99.1382 104.924 101.626 107.408L128.626 134.482C131.103 136.976 132.493 140.353 132.493 143.872C132.493 147.392 131.103 150.769 128.626 153.263C126.139 155.746 122.771 157.14 119.261 157.14C115.751 157.14 112.384 155.746 109.896 153.263" fill="#FBBF24"/>
<path d="M82.8955 107.408C85.3832 104.924 88.7505 103.53 92.2607 103.53C95.7709 103.53 99.1382 104.924 101.626 107.408L128.626 134.482C131.103 136.976 132.493 140.353 132.493 143.872C132.493 147.392 131.103 150.769 128.626 153.263V153.263C126.139 155.746 122.771 157.14 119.261 157.14C115.751 157.14 112.384 155.746 109.896 153.263" stroke="#0F172A" stroke-width="3.37939" stroke-miterlimit="10"/>
<path d="M69.3686 162.361L29.3789 182.107" stroke="#0F172A" stroke-width="3.37939" stroke-miterlimit="10" stroke-linecap="round"/>
<path d="M123.211 87.1749L121.798 85.7583C119.688 83.6427 116.267 83.6427 114.157 85.7583L109.647 90.2809C107.537 92.3965 107.537 95.8267 109.647 97.9423L111.06 99.3588C113.17 101.474 116.59 101.474 118.7 99.3588L123.211 94.8363C125.32 92.7207 125.32 89.2905 123.211 87.1749Z" fill="#F59E0B"/>
<path d="M120.044 135.577C117.543 133.069 113.489 133.068 110.989 135.575C108.489 138.081 108.49 142.147 110.991 144.655L114.084 147.756C116.585 150.264 120.639 150.265 123.139 147.759C125.639 145.252 125.638 141.186 123.137 138.678L120.044 135.577Z" fill="#F59E0B"/>
<path d="M141.946 105.951L140.533 104.534C138.423 102.419 135.002 102.419 132.893 104.534L128.382 109.057C126.272 111.173 126.272 114.603 128.382 116.718L129.795 118.135C131.905 120.25 135.326 120.25 137.436 118.135L141.946 113.612C144.056 111.497 144.056 108.067 141.946 105.951Z" fill="#F59E0B"/>
<path d="M160.676 124.732L159.264 123.315C157.154 121.2 153.733 121.2 151.623 123.315L147.113 127.838C145.003 129.954 145.003 133.384 147.113 135.499L148.525 136.916C150.635 139.031 154.056 139.031 156.166 136.916L160.676 132.393C162.786 130.278 162.786 126.848 160.676 124.732Z" fill="#F59E0B"/>
<path d="M179.4 143.503L177.988 142.087C175.878 139.971 172.457 139.971 170.347 142.087L165.837 146.609C163.727 148.725 163.727 152.155 165.837 154.271L167.25 155.687C169.36 157.803 172.78 157.803 174.89 155.687L179.4 151.165C181.51 149.049 181.51 145.619 179.4 143.503Z" fill="#F59E0B"/>
<path d="M79.6567 110.735L83.7719 106.609" stroke="#0F172A" stroke-width="3.37939" stroke-miterlimit="10"/>
<path d="M84.2364 160.018L77.6655 153.43L80.2673 150.821L90.9268 161.509C91.0065 161.586 91.0571 161.688 91.0701 161.798C91.0831 161.908 91.0578 162.019 90.9983 162.112C90.9389 162.206 90.849 162.276 90.744 162.31C90.639 162.344 90.5254 162.341 90.4224 162.301L84.2364 160.018Z" fill="#0F172A"/>
<path d="M109.896 153.263L91.5171 134.828L109.896 153.263Z" fill="#FBBF24"/>
<path d="M108.595 154.568L90.2162 136.132L89.3334 131.274C89.3171 131.173 89.3329 131.069 89.3786 130.978C89.4243 130.887 89.4976 130.812 89.588 130.765C89.6785 130.718 89.7815 130.7 89.8823 130.715C89.9832 130.73 90.0768 130.776 90.1498 130.848L111.197 151.959L108.595 154.568Z" fill="#0F172A"/>
<path d="M111.914 187.771L107.513 183.359C107.435 183.284 107.384 183.185 107.369 183.078C107.353 182.971 107.375 182.862 107.429 182.768C107.484 182.675 107.569 182.603 107.67 182.564C107.77 182.525 107.881 182.521 107.984 182.553L113.493 184.137L114.515 185.162L111.914 187.771Z" fill="#0F172A"/>
</svg>
